<?xml version="1.0" encoding="UTF-8"?>
<svg width="150px" height="150px" viewBox="0 0 150 150" version="1.1" xmlns="http://www.w3.org/2000/svg" xmlns:xlink="http://www.w3.org/1999/xlink">
    <!-- Generator: Sketch 44.1 (41455) - http://www.bohemiancoding.com/sketch -->
    <title>remote-config-icon</title>
    <desc>Created with Sketch.</desc>
    <defs></defs>
    <g id="Logos" stroke="none" stroke-width="1" fill="none" fill-rule="evenodd">
        <g id="remote-config-icon">
            <g id="remote-config" transform="translate(11.000000, 11.000000)">
                <circle id="Oval" fill="#757575" fill-rule="nonzero" cx="64.1818182" cy="64.3636364" r="63.6363636"></circle>
                <g id="remote-config-icon" transform="translate(33.000000, 29.000000)" fill-rule="evenodd" fill="#FFFFFF">
                    <path d="M0.0205294674,50.6600049 L11.6647528,50.6600049 L11.6647528,16.9077151 L11.6647528,16.9077151 C11.6647528,14.1462913 13.903329,11.9077151 16.6647528,11.9077151 C26.6103608,11.9077151 36.5559688,11.9077151 46.5015768,11.9077151 C46.5015768,11.3426121 46.5015768,3.27745698 46.5015768,0.240207504 C47.2339211,1.56052266 60.3584544,14.1987702 61.9332552,15.8146131 C61.3638334,16.3817606 49.9769477,27.8966318 46.5015768,31.2537187 C46.5015768,29.151262 46.5015768,21.6260652 46.5015768,19.5345669 C36.3639111,19.5345669 27.1271506,19.6469764 19.3757943,19.6469764 C19.3757943,31.5635708 19.3757943,43.4801651 19.3757943,55.3967595 L19.3757943,55.3967595 C19.3757943,57.0536137 18.0326486,58.3967595 16.3757943,58.3967595 L0.0708775883,58.3967595 L0.0205294674,50.6600049 Z" id="Rectangle-3"></path>
                    <path d="M27.2878821,50.7091742 C34.69602,50.7091742 41.633608,50.7091742 46.4810474,50.7091742 C46.4810474,50.1440713 46.4810474,42.0789161 46.4810474,39.0416667 C47.2133917,40.3619818 60.337925,53.0002293 61.9127257,54.6160723 C61.3433039,55.1832197 49.9564182,66.698091 46.4810474,70.0551779 C46.4810474,67.9527212 46.4810474,60.4275244 46.4810474,58.3360261 C36.3433816,58.3360261 35.0392384,58.3360261 27.2878821,58.3360261 C27.2878821,54.5484223 27.2878821,55.1591072 27.2878821,50.7091742 Z" id="Rectangle-3"></path>
                </g>
            </g>
        </g>
    </g>
</svg>