<?xml version="1.0" encoding="UTF-8"?>
<svg width="842px" height="595px" viewBox="0 0 842 595" version="1.1" xmlns="http://www.w3.org/2000/svg" xmlns:xlink="http://www.w3.org/1999/xlink" style="background: #FFFFFF;">
    <!-- Generator: Sketch 44.1 (41455) - http://www.bohemiancoding.com/sketch -->
    <title>Authentication</title>
    <desc>Created with Sketch.</desc>
    <defs>
        <path d="M228.243182,75.5863636 C227.844475,73.2407062 226.170537,71.3134038 223.903812,70.5901945 C221.637086,69.8669853 219.156257,70.4686897 217.472727,72.15 L184.445455,105.272727 L158.45,55.7795455 C157.349768,53.6882127 155.18127,52.3787611 152.818182,52.3787611 C150.455094,52.3787611 148.286596,53.6882127 147.186364,55.7795455 L132.979545,82.825 L97.3431818,16.3727273 C96.050731,13.9584958 93.358728,12.641817 90.6595434,13.1037096 C87.9603587,13.5656021 85.8593383,15.7024775 85.4431818,18.4090909 L51,238.909091 L143.113636,290.55 C148.897914,293.779597 155.942996,293.779597 161.727273,290.55 L254.636364,238.909091 L228.243182,75.5863636 Z" id="path-1"></path>
        <linearGradient x1="53.6792453%" y1="53.40625%" x2="46.1320755%" y2="51.2291667%" id="linearGradient-3">
            <stop stop-color="#A52714" offset="0%"></stop>
            <stop stop-color="#A52714" stop-opacity="0.5" offset="40%"></stop>
            <stop stop-color="#A52714" stop-opacity="0" offset="80%"></stop>
        </linearGradient>
        <linearGradient x1="47.3385417%" y1="47.3489583%" x2="45.4739583%" y2="45.484375%" id="linearGradient-4">
            <stop stop-color="#A52714" stop-opacity="0.8" offset="0%"></stop>
            <stop stop-color="#A52714" stop-opacity="0.21" offset="50%"></stop>
            <stop stop-color="#A52714" stop-opacity="0" offset="100%"></stop>
        </linearGradient>
        <linearGradient x1="-3.759375%" y1="18.3397416%" x2="100.683594%" y2="94.3091165%" id="linearGradient-5">
            <stop stop-color="#FFFFFF" stop-opacity="0.1" offset="0%"></stop>
            <stop stop-color="#FFFFFF" stop-opacity="0" offset="100%"></stop>
        </linearGradient>
    </defs>
    <g id="apresentacoes" stroke="none" stroke-width="1" fill="none" fill-rule="evenodd">
        <g id="Authentication">
            <text font-family="MicrosoftSansSerif, Microsoft Sans Serif" font-size="50" font-weight="normal" letter-spacing="-2.41312551" fill="#4A4A4A">
                <tspan x="62" y="84">Authentication</tspan>
            </text>
            <text id="O-Firebase-Authentic" font-family="MicrosoftSansSerif, Microsoft Sans Serif" font-size="26" font-weight="normal" letter-spacing="-1.09000003" fill="#9B9B9B">
                <tspan x="304" y="158">O Firebase Authentication fornece serviços de </tspan>
                <tspan x="304" y="187">back-end, SDKs fáceis de usar e bibliotecas de </tspan>
                <tspan x="304" y="216">IU prontas para autenticar usuários no seu app. </tspan>
                <tspan x="304" y="245">Ele oferece suporte à autenticação por meio de </tspan>
                <tspan x="304" y="274">senhas, números de telefone e provedores de </tspan>
                <tspan x="304" y="303">identidade federados como Google, Facebook, </tspan>
                <tspan x="304" y="332">Twitter e muito mais.</tspan>
                <tspan x="304" y="361">O Firebase Authentication é estreitamente </tspan>
                <tspan x="304" y="390">integrado a outros serviços do Firebase e </tspan>
                <tspan x="304" y="419">aproveita os padrões do setor, como OAuth 2.0 </tspan>
                <tspan x="304" y="448">e OpenID Connect, para que possa ser </tspan>
                <tspan x="304" y="477">facilmente integrado ao seu back-end </tspan>
                <tspan x="304" y="506">personalizado</tspan>
                <tspan x="452.025312" y="506">.</tspan>
            </text>
            <g id="Group" transform="translate(33.000000, 134.000000)">
                <g id="firebase-logo">
                    <g transform="translate(-51.000000, -13.000000)">
                        <mask id="mask-2" fill="white">
                            <use xlink:href="#path-1"></use>
                        </mask>
                        <g id="Shape"></g>
                        <g id="Group" mask="url(#mask-2)" fill-rule="nonzero">
                            <g transform="translate(0.090909, 0.272727)" id="Shape">
                                <path d="M50.9090909,238.636364 L85.3681818,18.1204545 C85.7894092,15.416197 87.8925319,13.2841489 90.5907836,12.8260233 C93.2890352,12.3678977 95.9779991,13.6863161 97.2681818,16.1 L132.904545,82.5681818 L147.111364,55.5227273 C148.211596,53.4313946 150.380094,52.1219429 152.743182,52.1219429 C155.10627,52.1219429 157.274768,53.4313946 158.375,55.5227273 L254.545455,238.636364 L50.9090909,238.636364 Z" fill="#FFA000"></path>
                                <polygon fill="url(#linearGradient-3)" opacity="0.12" points="168.636364 14.3181818 0 0 0 305.454545 50.9090909 238.636364"></polygon>
                                <polygon fill="#F57C00" points="169.956818 152.743182 132.888636 82.5522727 50.9090909 238.636364"></polygon>
                                <polygon fill="url(#linearGradient-4)" opacity="0.2" points="0 0 305.454545 0 305.454545 305.454545 0 305.454545"></polygon>
                                <path d="M254.545455,238.636364 L228.152273,75.3136364 C227.753566,72.967979 226.079628,71.0406765 223.812903,70.3174673 C221.546177,69.594258 219.065348,70.1959624 217.381818,71.8772727 L50.9090909,238.636364 L143.022727,290.293182 C148.807004,293.522779 155.852086,293.522779 161.636364,290.293182 L254.545455,238.636364 Z" fill="#FFCA28"></path>
                                <path d="M228.152273,75.3136364 C227.753566,72.967979 226.079628,71.0406765 223.812903,70.3174673 C221.546177,69.594258 219.065348,70.1959624 217.381818,71.8772727 L184.354545,105 L158.359091,55.5068182 C157.258858,53.4154855 155.090361,52.1060338 152.727273,52.1060338 C150.364185,52.1060338 148.195687,53.4154855 147.095455,55.5068182 L132.888636,82.5522727 L97.2522727,16.1 C95.9598219,13.6857686 93.267819,12.3690897 90.5686343,12.8309823 C87.8694497,13.2928748 85.7684292,15.4297502 85.3522727,18.1363636 L50.9090909,238.636364 L50.7818182,238.636364 L50.8931818,238.763636 L51.8,239.209091 L184.275,106.590909 L217.334091,73.5 C219.01672,71.8093857 221.503491,71.2016915 223.776193,71.9257381 C226.048895,72.6497848 227.72586,74.583979 228.120455,76.9363636 L254.290909,238.795455 L254.545455,238.636364 L228.152273,75.3136364 Z M51.2113636,238.334091 L85.3681818,19.7113636 C85.7843383,17.0047502 87.8853587,14.8678748 90.5845434,14.4059823 C93.283728,13.9440897 95.975731,15.2607686 97.2681818,17.675 L132.904545,84.1431818 L147.111364,57.0977273 C148.211596,55.0063946 150.380094,53.6969429 152.743182,53.6969429 C155.10627,53.6969429 157.274768,55.0063946 158.375,57.0977273 L183.829545,105.509091 L51.2113636,238.334091 Z" fill-opacity="0.2" fill="#FFFFFF"></path>
                                <path d="M161.636364,288.734091 C155.852086,291.963688 148.807004,291.963688 143.022727,288.734091 L51.1318182,237.188636 L50.9090909,238.636364 L143.022727,290.277273 C148.807004,293.506869 155.852086,293.506869 161.636364,290.277273 L254.545455,238.636364 L254.306818,237.172727 L161.636364,288.734091 Z" fill="#A52714" opacity="0.2"></path>
                                <path d="M228.152273,75.3136364 C227.753566,72.967979 226.079628,71.0406765 223.812903,70.3174673 C221.546177,69.594258 219.065348,70.1959624 217.381818,71.8772727 L184.354545,105 L158.359091,55.5068182 C157.258858,53.4154855 155.090361,52.1060338 152.727273,52.1060338 C150.364185,52.1060338 148.195687,53.4154855 147.095455,55.5068182 L132.888636,82.5522727 L97.2522727,16.1 C95.9598219,13.6857686 93.267819,12.3690897 90.5686343,12.8309823 C87.8694497,13.2928748 85.7684292,15.4297502 85.3522727,18.1363636 L50.9090909,238.636364 L143.022727,290.277273 C148.807004,293.506869 155.852086,293.506869 161.636364,290.277273 L254.545455,238.636364 L228.152273,75.3136364 Z" fill="url(#linearGradient-5)"></path>
                            </g>
                        </g>
                    </g>
                </g>
                <g id="authentication" transform="translate(115.000000, 152.000000)" fill-rule="nonzero">
                    <circle id="Oval" fill="#757575" cx="64.1818182" cy="64.3636364" r="63.6363636"></circle>
                    <g id="authentication-icon" transform="translate(33.000000, 44.000000)" fill="#FFFFFF">
                        <path d="M41.3986517,24.0074411 C58.0382607,23.0045204 62.0820262,31.7632 62.3318104,31.7632 L62.3318104,40.0696154 L45.8573071,40.0696154 C45.6075228,39.8157308 48.1323194,27.526355 41.3986517,24.0074411 Z M43.6408728,17.7719231 C38.8125521,17.7719231 34.8984249,13.7935426 34.8984249,8.88596154 C34.8984249,3.97838049 38.8125521,0 43.6408728,0 C48.4691935,0 52.3833207,3.97838049 52.3833207,8.88596154 C52.3833207,13.7935426 48.4691935,17.7719231 43.6408728,17.7719231 Z M10.7764052,8.88596154 C10.7764052,4.06215385 14.7729529,0 19.5188532,0 C24.2647535,0 28.2613011,4.06215385 28.2613011,8.88596154 C28.2613011,13.7097692 24.2647535,17.7719231 19.5188532,17.7719231 C14.7729529,17.7719231 10.7764052,13.7097692 10.7764052,8.88596154 Z M19.5188532,23.1807692 C38.4556025,23.1807692 39.0377063,33.3361538 39.0377063,33.3361538 L39.0377063,40.0696154 L0,40.0696154 L0,33.3361538 C0,33.3361538 0.582103881,23.1807692 19.5188532,23.1807692 Z" id="shape"></path>
                    </g>
                </g>
            </g>
        </g>
    </g>
</svg>