<?xml version="1.0" encoding="UTF-8"?>
<svg width="842px" height="595px" viewBox="0 0 842 595" version="1.1" xmlns="http://www.w3.org/2000/svg" xmlns:xlink="http://www.w3.org/1999/xlink" style="background: #FFFFFF;">
    <!-- Generator: Sketch 44.1 (41455) - http://www.bohemiancoding.com/sketch -->
    <title>Firebase</title>
    <desc>Created with Sketch.</desc>
    <defs>
        <path d="M81.6752562,26.9951299 C81.5325818,26.1573951 80.9335745,25.4690728 80.1224424,25.2107838 C79.3113103,24.9524947 78.4235624,25.1673892 77.821123,25.7678571 L66.0025401,37.5974026 L56.7002451,19.9212662 C56.3065345,19.1743617 55.5305524,18.7067004 54.6849376,18.7067004 C53.8393229,18.7067004 53.0633408,19.1743617 52.6696301,19.9212662 L47.5858177,29.5803571 L34.8335896,5.8474026 C34.3710949,4.98517709 33.4077801,4.51493464 32.4418954,4.67989627 C31.4760107,4.8448579 30.724175,5.60802767 30.5752562,6.57467532 L18.25,85.3246753 L51.2122326,103.767857 C53.2820965,104.921285 55.8031308,104.921285 57.8729947,103.767857 L91.1198752,85.3246753 L81.6752562,26.9951299 Z" id="path-1"></path>
        <linearGradient x1="53.6792453%" y1="53.40625%" x2="46.1320755%" y2="51.2291667%" id="linearGradient-3">
            <stop stop-color="#A52714" offset="0%"></stop>
            <stop stop-color="#A52714" stop-opacity="0.5" offset="40%"></stop>
            <stop stop-color="#A52714" stop-opacity="0" offset="80%"></stop>
        </linearGradient>
        <linearGradient x1="47.3385417%" y1="47.3489583%" x2="45.4739583%" y2="45.484375%" id="linearGradient-4">
            <stop stop-color="#A52714" stop-opacity="0.8" offset="0%"></stop>
            <stop stop-color="#A52714" stop-opacity="0.21" offset="50%"></stop>
            <stop stop-color="#A52714" stop-opacity="0" offset="100%"></stop>
        </linearGradient>
        <linearGradient x1="-3.759375%" y1="18.3397416%" x2="100.683594%" y2="94.3091165%" id="linearGradient-5">
            <stop stop-color="#FFFFFF" stop-opacity="0.1" offset="0%"></stop>
            <stop stop-color="#FFFFFF" stop-opacity="0" offset="100%"></stop>
        </linearGradient>
        <path d="M81.6752562,26.9951299 C81.5325818,26.1573951 80.9335745,25.4690728 80.1224424,25.2107838 C79.3113103,24.9524947 78.4235624,25.1673892 77.821123,25.7678571 L66.0025401,37.5974026 L56.7002451,19.9212662 C56.3065345,19.1743617 55.5305524,18.7067004 54.6849376,18.7067004 C53.8393229,18.7067004 53.0633408,19.1743617 52.6696301,19.9212662 L47.5858177,29.5803571 L34.8335896,5.8474026 C34.3710949,4.98517709 33.4077801,4.51493464 32.4418954,4.67989627 C31.4760107,4.8448579 30.724175,5.60802767 30.5752562,6.57467532 L18.25,85.3246753 L51.2122326,103.767857 C53.2820965,104.921285 55.8031308,104.921285 57.8729947,103.767857 L91.1198752,85.3246753 L81.6752562,26.9951299 Z" id="path-6"></path>
        <path d="M81.6752562,26.9951299 C81.5325818,26.1573951 80.9335745,25.4690728 80.1224424,25.2107838 C79.3113103,24.9524947 78.4235624,25.1673892 77.821123,25.7678571 L66.0025401,37.5974026 L56.7002451,19.9212662 C56.3065345,19.1743617 55.5305524,18.7067004 54.6849376,18.7067004 C53.8393229,18.7067004 53.0633408,19.1743617 52.6696301,19.9212662 L47.5858177,29.5803571 L34.8335896,5.8474026 C34.3710949,4.98517709 33.4077801,4.51493464 32.4418954,4.67989627 C31.4760107,4.8448579 30.724175,5.60802767 30.5752562,6.57467532 L18.25,85.3246753 L51.2122326,103.767857 C53.2820965,104.921285 55.8031308,104.921285 57.8729947,103.767857 L91.1198752,85.3246753 L81.6752562,26.9951299 Z" id="path-8"></path>
        <path d="M81.6752562,26.9951299 C81.5325818,26.1573951 80.9335745,25.4690728 80.1224424,25.2107838 C79.3113103,24.9524947 78.4235624,25.1673892 77.821123,25.7678571 L66.0025401,37.5974026 L56.7002451,19.9212662 C56.3065345,19.1743617 55.5305524,18.7067004 54.6849376,18.7067004 C53.8393229,18.7067004 53.0633408,19.1743617 52.6696301,19.9212662 L47.5858177,29.5803571 L34.8335896,5.8474026 C34.3710949,4.98517709 33.4077801,4.51493464 32.4418954,4.67989627 C31.4760107,4.8448579 30.724175,5.60802767 30.5752562,6.57467532 L18.25,85.3246753 L51.2122326,103.767857 C53.2820965,104.921285 55.8031308,104.921285 57.8729947,103.767857 L91.1198752,85.3246753 L81.6752562,26.9951299 Z" id="path-10"></path>
        <path d="M81.6752562,26.9951299 C81.5325818,26.1573951 80.9335745,25.4690728 80.1224424,25.2107838 C79.3113103,24.9524947 78.4235624,25.1673892 77.821123,25.7678571 L66.0025401,37.5974026 L56.7002451,19.9212662 C56.3065345,19.1743617 55.5305524,18.7067004 54.6849376,18.7067004 C53.8393229,18.7067004 53.0633408,19.1743617 52.6696301,19.9212662 L47.5858177,29.5803571 L34.8335896,5.8474026 C34.3710949,4.98517709 33.4077801,4.51493464 32.4418954,4.67989627 C31.4760107,4.8448579 30.724175,5.60802767 30.5752562,6.57467532 L18.25,85.3246753 L51.2122326,103.767857 C53.2820965,104.921285 55.8031308,104.921285 57.8729947,103.767857 L91.1198752,85.3246753 L81.6752562,26.9951299 Z" id="path-12"></path>
        <path d="M81.6752562,26.9951299 C81.5325818,26.1573951 80.9335745,25.4690728 80.1224424,25.2107838 C79.3113103,24.9524947 78.4235624,25.1673892 77.821123,25.7678571 L66.0025401,37.5974026 L56.7002451,19.9212662 C56.3065345,19.1743617 55.5305524,18.7067004 54.6849376,18.7067004 C53.8393229,18.7067004 53.0633408,19.1743617 52.6696301,19.9212662 L47.5858177,29.5803571 L34.8335896,5.8474026 C34.3710949,4.98517709 33.4077801,4.51493464 32.4418954,4.67989627 C31.4760107,4.8448579 30.724175,5.60802767 30.5752562,6.57467532 L18.25,85.3246753 L51.2122326,103.767857 C53.2820965,104.921285 55.8031308,104.921285 57.8729947,103.767857 L91.1198752,85.3246753 L81.6752562,26.9951299 Z" id="path-14"></path>
        <path d="M228.243182,75.5863636 C227.844475,73.2407062 226.170537,71.3134038 223.903812,70.5901945 C221.637086,69.8669853 219.156257,70.4686897 217.472727,72.15 L184.445455,105.272727 L158.45,55.7795455 C157.349768,53.6882127 155.18127,52.3787611 152.818182,52.3787611 C150.455094,52.3787611 148.286596,53.6882127 147.186364,55.7795455 L132.979545,82.825 L97.3431818,16.3727273 C96.050731,13.9584958 93.358728,12.641817 90.6595434,13.1037096 C87.9603587,13.5656021 85.8593383,15.7024775 85.4431818,18.4090909 L51,238.909091 L143.113636,290.55 C148.897914,293.779597 155.942996,293.779597 161.727273,290.55 L254.636364,238.909091 L228.243182,75.5863636 Z" id="path-16"></path>
    </defs>
    <g id="apresentacoes" stroke="none" stroke-width="1" fill="none" fill-rule="evenodd">
        <g id="Firebase">
            <text id="Plataforma-unificada" font-family="MicrosoftSansSerif, Microsoft Sans Serif" font-size="26" font-weight="normal" letter-spacing="-1.09000003" fill="#9B9B9B">
                <tspan x="242" y="183">Plataforma unificada do Google para </tspan>
                <tspan x="242" y="212">desenvolvimento, com serviços baseados na </tspan>
                <tspan x="242" y="241">nuvem </tspan>
                <tspan x="242" y="270">Backend As A Service (BAAS)</tspan>
            </text>
            <text font-family="MicrosoftSansSerif, Microsoft Sans Serif" font-size="80" font-weight="normal" letter-spacing="-3.86100078" fill="#4A4A4A">
                <tspan x="62" y="112">Firebase</tspan>
            </text>
            <text id="O-Firebase-usa-a-inf" font-family="MicrosoftSansSerif, Microsoft Sans Serif" font-size="26" font-weight="normal" letter-spacing="-1.09000003" fill="#9B9B9B">
                <tspan x="242" y="322">O Firebase usa a infraestrutura do Google e é </tspan>
                <tspan x="242" y="351">dimensionado automaticamente, para que </tspan>
                <tspan x="242" y="380">você não precise se preocupar em atender à </tspan>
                <tspan x="242" y="409">demanda dos usuários.</tspan>
            </text>
            <g id="Group-4" transform="translate(65.000000, 452.000000)">
                <g id="firebase-logo">
                    <g transform="translate(-18.250000, -4.642857)">
                        <mask id="mask-2" fill="white">
                            <use xlink:href="#path-1"></use>
                        </mask>
                        <g id="Shape"></g>
                        <g id="Group" mask="url(#mask-2)" fill-rule="nonzero">
                            <g transform="translate(0.032531, 0.097403)" id="Shape">
                                <path d="M18.2174688,85.2272727 L30.548418,6.47159091 C30.6991513,5.50578466 31.4517393,4.7443389 32.4172902,4.58072261 C33.382841,4.41710632 34.3450683,4.88797005 34.8067513,5.75 L47.5589795,29.4886364 L52.6427919,19.8295455 C53.0365025,19.0826409 53.8124846,18.6149796 54.6580994,18.6149796 C55.5037141,18.6149796 56.2796962,19.0826409 56.6734069,19.8295455 L91.087344,85.2272727 L18.2174688,85.2272727 Z" fill="#FFA000"></path>
                                <polygon fill="url(#linearGradient-3)" opacity="0.12" points="60.3453654 5.11363636 0 0 0 109.090909 18.2174688 85.2272727"></polygon>
                                <polygon fill="#F57C00" points="60.817881 54.5511364 47.5532865 29.4829545 18.2174688 85.2272727"></polygon>
                                <polygon fill="url(#linearGradient-4)" opacity="0.2" points="0 0 109.304813 0 109.304813 109.090909 0 109.090909"></polygon>
                                <path d="M91.087344,85.2272727 L81.642725,26.8977273 C81.5000506,26.0599925 80.9010433,25.3716702 80.0899112,25.1133812 C79.2787791,24.8550921 78.3910312,25.0699866 77.7885918,25.6704545 L18.2174688,85.2272727 L51.1797014,103.676136 C53.2495653,104.829564 55.7705996,104.829564 57.8404635,103.676136 L91.087344,85.2272727 Z" fill="#FFCA28"></path>
                                <path d="M81.642725,26.8977273 C81.5000506,26.0599925 80.9010433,25.3716702 80.0899112,25.1133812 C79.2787791,24.8550921 78.3910312,25.0699866 77.7885918,25.6704545 L65.9700089,37.5 L56.6677139,19.8238636 C56.2740033,19.0769591 55.4980212,18.6092978 54.6524064,18.6092978 C53.8067917,18.6092978 53.0308096,19.0769591 52.6370989,19.8238636 L47.5532865,29.4829545 L34.8010584,5.75 C34.3385637,4.88777449 33.3752489,4.41753204 32.4093642,4.58249367 C31.4434795,4.7474553 30.6916438,5.51062507 30.542725,6.47727273 L18.2174688,85.2272727 L18.1719251,85.2272727 L18.2117758,85.2727273 L18.5362745,85.4318182 L65.9415441,38.0681818 L77.7715129,26.25 C78.3736303,25.6462092 79.2635041,25.4291755 80.0767749,25.6877636 C80.8900457,25.9463517 81.4901363,26.6371354 81.6313391,27.4772727 L90.9962567,85.2840909 L91.087344,85.2272727 L81.642725,26.8977273 Z M18.325635,85.1193182 L30.548418,7.03977273 C30.6973368,6.07312507 31.4491725,5.3099553 32.4150572,5.14499367 C33.3809419,4.98003204 34.3442567,5.45027449 34.8067513,6.3125 L47.5589795,30.0511364 L52.6427919,20.3920455 C53.0365025,19.6451409 53.8124846,19.1774796 54.6580994,19.1774796 C55.5037141,19.1774796 56.2796962,19.6451409 56.6734069,20.3920455 L65.7821413,37.6818182 L18.325635,85.1193182 Z" fill-opacity="0.2" fill="#FFFFFF"></path>
                                <path d="M57.8404635,103.119318 C55.7705996,104.272746 53.2495653,104.272746 51.1797014,103.119318 L18.2971702,84.7102273 L18.2174688,85.2272727 L51.1797014,103.670455 C53.2495653,104.823882 55.7705996,104.823882 57.8404635,103.670455 L91.087344,85.2272727 L91.0019496,84.7045455 L57.8404635,103.119318 Z" fill="#A52714" opacity="0.2"></path>
                                <path d="M81.642725,26.8977273 C81.5000506,26.0599925 80.9010433,25.3716702 80.0899112,25.1133812 C79.2787791,24.8550921 78.3910312,25.0699866 77.7885918,25.6704545 L65.9700089,37.5 L56.6677139,19.8238636 C56.2740033,19.0769591 55.4980212,18.6092978 54.6524064,18.6092978 C53.8067917,18.6092978 53.0308096,19.0769591 52.6370989,19.8238636 L47.5532865,29.4829545 L34.8010584,5.75 C34.3385637,4.88777449 33.3752489,4.41753204 32.4093642,4.58249367 C31.4434795,4.7474553 30.6916438,5.51062507 30.542725,6.47727273 L18.2174688,85.2272727 L51.1797014,103.670455 C53.2495653,104.823882 55.7705996,104.823882 57.8404635,103.670455 L91.087344,85.2272727 L81.642725,26.8977273 Z" fill="url(#linearGradient-5)"></path>
                            </g>
                        </g>
                    </g>
                </g>
                <g id="realtime-database" transform="translate(41.071429, 54.285714)">
                    <circle id="Oval" fill="#757575" fill-rule="nonzero" cx="23.0653409" cy="23.1306818" r="22.8693182"></circle>
                    <g id="realtime-database-icon" transform="translate(12.578125, 12.578125)" fill-rule="evenodd" fill="#FFFFFF">
                        <path d="M0.197492163,14.0877743 L20.9341693,14.0877743 L20.9341693,18.6982288 C20.9347806,19.308285 20.6929441,19.8935809 20.2618933,20.3252799 C19.8308424,20.7569789 19.2459106,20.9996947 18.6358542,21 L2.49580721,21 C1.22605574,20.9977763 0.197807892,19.9679822 0.197492163,18.6982288 L0.197492163,14.0877743 Z M0.197492163,2.55818182 C0.197492163,1.29094044 1.22626176,0.263322884 2.49580721,0.263322884 L18.6358542,0.263322884 C19.9053997,0.263322884 20.9341693,1.30015674 20.9341693,2.55818182 L20.9341693,10.6408777 C20.9341693,11.9081191 19.9053997,12.9357367 18.6358542,12.9357367 L2.49580721,12.9357367 C1.22626176,12.9357367 0.197492163,11.8989028 0.197492163,10.6408777 L0.197492163,2.55818182 Z M2.5015674,2.56739812 L18.630094,2.56739812 L18.630094,6.02351097 L2.5015674,6.02351097 L2.5015674,2.56739812 Z M2.5015674,8.9093652 C2.5015674,8.58679467 2.74810345,8.32758621 3.08334639,8.32758621 L4.22386364,8.32758621 C4.54643417,8.32758621 4.80564263,8.57412226 4.80564263,8.9093652 L4.80564263,10.0498824 C4.80815924,10.2049376 4.74767331,10.3543821 4.6380183,10.4640371 C4.52836329,10.5736921 4.37891882,10.6341781 4.22386364,10.6316614 L3.08334639,10.6316614 C2.92829121,10.6341781 2.77884674,10.5736921 2.66919173,10.4640371 C2.55953672,10.3543821 2.49905079,10.2049376 2.5015674,10.0498824 L2.5015674,8.9093652 Z M2.5015674,16.9736285 C2.5015674,16.651058 2.74810345,16.3918495 3.08334639,16.3918495 L4.22386364,16.3918495 C4.54643417,16.3918495 4.80564263,16.6383856 4.80564263,16.9736285 L4.80564263,18.1141458 C4.80815924,18.269201 4.74767331,18.4186454 4.6380183,18.5283004 C4.52836329,18.6379554 4.37891882,18.6984414 4.22386364,18.6959248 L3.08334639,18.6959248 C2.92829121,18.6984414 2.77884674,18.6379554 2.66919173,18.5283004 C2.55953672,18.4186454 2.49905079,18.269201 2.5015674,18.1141458 L2.5015674,16.9736285 Z" id="Shape"></path>
                    </g>
                </g>
            </g>
            <g id="Group" transform="translate(190.000000, 452.000000)">
                <g id="firebase-logo">
                    <g transform="translate(-18.250000, -4.642857)">
                        <mask id="mask-7" fill="white">
                            <use xlink:href="#path-6"></use>
                        </mask>
                        <g id="Shape"></g>
                        <g id="Group" mask="url(#mask-7)" fill-rule="nonzero">
                            <g transform="translate(0.032531, 0.097403)" id="Shape">
                                <path d="M18.2174688,85.2272727 L30.548418,6.47159091 C30.6991513,5.50578466 31.4517393,4.7443389 32.4172902,4.58072261 C33.382841,4.41710632 34.3450683,4.88797005 34.8067513,5.75 L47.5589795,29.4886364 L52.6427919,19.8295455 C53.0365025,19.0826409 53.8124846,18.6149796 54.6580994,18.6149796 C55.5037141,18.6149796 56.2796962,19.0826409 56.6734069,19.8295455 L91.087344,85.2272727 L18.2174688,85.2272727 Z" fill="#FFA000"></path>
                                <polygon fill="url(#linearGradient-3)" opacity="0.12" points="60.3453654 5.11363636 0 0 0 109.090909 18.2174688 85.2272727"></polygon>
                                <polygon fill="#F57C00" points="60.817881 54.5511364 47.5532865 29.4829545 18.2174688 85.2272727"></polygon>
                                <polygon fill="url(#linearGradient-4)" opacity="0.2" points="0 0 109.304813 0 109.304813 109.090909 0 109.090909"></polygon>
                                <path d="M91.087344,85.2272727 L81.642725,26.8977273 C81.5000506,26.0599925 80.9010433,25.3716702 80.0899112,25.1133812 C79.2787791,24.8550921 78.3910312,25.0699866 77.7885918,25.6704545 L18.2174688,85.2272727 L51.1797014,103.676136 C53.2495653,104.829564 55.7705996,104.829564 57.8404635,103.676136 L91.087344,85.2272727 Z" fill="#FFCA28"></path>
                                <path d="M81.642725,26.8977273 C81.5000506,26.0599925 80.9010433,25.3716702 80.0899112,25.1133812 C79.2787791,24.8550921 78.3910312,25.0699866 77.7885918,25.6704545 L65.9700089,37.5 L56.6677139,19.8238636 C56.2740033,19.0769591 55.4980212,18.6092978 54.6524064,18.6092978 C53.8067917,18.6092978 53.0308096,19.0769591 52.6370989,19.8238636 L47.5532865,29.4829545 L34.8010584,5.75 C34.3385637,4.88777449 33.3752489,4.41753204 32.4093642,4.58249367 C31.4434795,4.7474553 30.6916438,5.51062507 30.542725,6.47727273 L18.2174688,85.2272727 L18.1719251,85.2272727 L18.2117758,85.2727273 L18.5362745,85.4318182 L65.9415441,38.0681818 L77.7715129,26.25 C78.3736303,25.6462092 79.2635041,25.4291755 80.0767749,25.6877636 C80.8900457,25.9463517 81.4901363,26.6371354 81.6313391,27.4772727 L90.9962567,85.2840909 L91.087344,85.2272727 L81.642725,26.8977273 Z M18.325635,85.1193182 L30.548418,7.03977273 C30.6973368,6.07312507 31.4491725,5.3099553 32.4150572,5.14499367 C33.3809419,4.98003204 34.3442567,5.45027449 34.8067513,6.3125 L47.5589795,30.0511364 L52.6427919,20.3920455 C53.0365025,19.6451409 53.8124846,19.1774796 54.6580994,19.1774796 C55.5037141,19.1774796 56.2796962,19.6451409 56.6734069,20.3920455 L65.7821413,37.6818182 L18.325635,85.1193182 Z" fill-opacity="0.2" fill="#FFFFFF"></path>
                                <path d="M57.8404635,103.119318 C55.7705996,104.272746 53.2495653,104.272746 51.1797014,103.119318 L18.2971702,84.7102273 L18.2174688,85.2272727 L51.1797014,103.670455 C53.2495653,104.823882 55.7705996,104.823882 57.8404635,103.670455 L91.087344,85.2272727 L91.0019496,84.7045455 L57.8404635,103.119318 Z" fill="#A52714" opacity="0.2"></path>
                                <path d="M81.642725,26.8977273 C81.5000506,26.0599925 80.9010433,25.3716702 80.0899112,25.1133812 C79.2787791,24.8550921 78.3910312,25.0699866 77.7885918,25.6704545 L65.9700089,37.5 L56.6677139,19.8238636 C56.2740033,19.0769591 55.4980212,18.6092978 54.6524064,18.6092978 C53.8067917,18.6092978 53.0308096,19.0769591 52.6370989,19.8238636 L47.5532865,29.4829545 L34.8010584,5.75 C34.3385637,4.88777449 33.3752489,4.41753204 32.4093642,4.58249367 C31.4434795,4.7474553 30.6916438,5.51062507 30.542725,6.47727273 L18.2174688,85.2272727 L51.1797014,103.670455 C53.2495653,104.823882 55.7705996,104.823882 57.8404635,103.670455 L91.087344,85.2272727 L81.642725,26.8977273 Z" fill="url(#linearGradient-5)"></path>
                            </g>
                        </g>
                    </g>
                </g>
                <g id="authentication" transform="translate(41.071429, 54.285714)" fill-rule="nonzero">
                    <circle id="Oval" fill="#757575" cx="23.0653409" cy="23.1306818" r="22.8693182"></circle>
                    <g id="authentication-icon" transform="translate(11.859375, 15.812500)" fill="#FFFFFF">
                        <path d="M15.1137935,8.78321017 C21.1885714,8.41628794 22.6648667,11.6206829 22.7560578,11.6206829 L22.7560578,14.6596154 L16.7415566,14.6596154 C16.6503655,14.5667308 17.5721166,10.0706177 15.1137935,8.78321017 Z M15.9323821,6.50192308 C14.1696619,6.50192308 12.7406948,5.04641802 12.7406948,3.25096154 C12.7406948,1.45550506 14.1696619,0 15.9323821,0 C17.6951024,0 19.1240695,1.45550506 19.1240695,3.25096154 C19.1240695,5.04641802 17.6951024,6.50192308 15.9323821,6.50192308 Z M3.93424318,3.25096154 C3.93424318,1.48615385 5.39330025,0 7.12593052,0 C8.85856079,0 10.3176179,1.48615385 10.3176179,3.25096154 C10.3176179,5.01576923 8.85856079,6.50192308 7.12593052,6.50192308 C5.39330025,6.50192308 3.93424318,5.01576923 3.93424318,3.25096154 Z M7.12593052,8.48076923 C14.0393469,8.48076923 14.251861,12.1961538 14.251861,12.1961538 L14.251861,14.6596154 L0,14.6596154 L0,12.1961538 C0,12.1961538 0.212514115,8.48076923 7.12593052,8.48076923 Z" id="shape"></path>
                    </g>
                </g>
            </g>
            <g id="Group" transform="translate(315.000000, 452.000000)">
                <g id="firebase-logo">
                    <g transform="translate(-18.250000, -4.642857)">
                        <mask id="mask-9" fill="white">
                            <use xlink:href="#path-8"></use>
                        </mask>
                        <g id="Shape"></g>
                        <g id="Group" mask="url(#mask-9)" fill-rule="nonzero">
                            <g transform="translate(0.032531, 0.097403)" id="Shape">
                                <path d="M18.2174688,85.2272727 L30.548418,6.47159091 C30.6991513,5.50578466 31.4517393,4.7443389 32.4172902,4.58072261 C33.382841,4.41710632 34.3450683,4.88797005 34.8067513,5.75 L47.5589795,29.4886364 L52.6427919,19.8295455 C53.0365025,19.0826409 53.8124846,18.6149796 54.6580994,18.6149796 C55.5037141,18.6149796 56.2796962,19.0826409 56.6734069,19.8295455 L91.087344,85.2272727 L18.2174688,85.2272727 Z" fill="#FFA000"></path>
                                <polygon fill="url(#linearGradient-3)" opacity="0.12" points="60.3453654 5.11363636 0 0 0 109.090909 18.2174688 85.2272727"></polygon>
                                <polygon fill="#F57C00" points="60.817881 54.5511364 47.5532865 29.4829545 18.2174688 85.2272727"></polygon>
                                <polygon fill="url(#linearGradient-4)" opacity="0.2" points="0 0 109.304813 0 109.304813 109.090909 0 109.090909"></polygon>
                                <path d="M91.087344,85.2272727 L81.642725,26.8977273 C81.5000506,26.0599925 80.9010433,25.3716702 80.0899112,25.1133812 C79.2787791,24.8550921 78.3910312,25.0699866 77.7885918,25.6704545 L18.2174688,85.2272727 L51.1797014,103.676136 C53.2495653,104.829564 55.7705996,104.829564 57.8404635,103.676136 L91.087344,85.2272727 Z" fill="#FFCA28"></path>
                                <path d="M81.642725,26.8977273 C81.5000506,26.0599925 80.9010433,25.3716702 80.0899112,25.1133812 C79.2787791,24.8550921 78.3910312,25.0699866 77.7885918,25.6704545 L65.9700089,37.5 L56.6677139,19.8238636 C56.2740033,19.0769591 55.4980212,18.6092978 54.6524064,18.6092978 C53.8067917,18.6092978 53.0308096,19.0769591 52.6370989,19.8238636 L47.5532865,29.4829545 L34.8010584,5.75 C34.3385637,4.88777449 33.3752489,4.41753204 32.4093642,4.58249367 C31.4434795,4.7474553 30.6916438,5.51062507 30.542725,6.47727273 L18.2174688,85.2272727 L18.1719251,85.2272727 L18.2117758,85.2727273 L18.5362745,85.4318182 L65.9415441,38.0681818 L77.7715129,26.25 C78.3736303,25.6462092 79.2635041,25.4291755 80.0767749,25.6877636 C80.8900457,25.9463517 81.4901363,26.6371354 81.6313391,27.4772727 L90.9962567,85.2840909 L91.087344,85.2272727 L81.642725,26.8977273 Z M18.325635,85.1193182 L30.548418,7.03977273 C30.6973368,6.07312507 31.4491725,5.3099553 32.4150572,5.14499367 C33.3809419,4.98003204 34.3442567,5.45027449 34.8067513,6.3125 L47.5589795,30.0511364 L52.6427919,20.3920455 C53.0365025,19.6451409 53.8124846,19.1774796 54.6580994,19.1774796 C55.5037141,19.1774796 56.2796962,19.6451409 56.6734069,20.3920455 L65.7821413,37.6818182 L18.325635,85.1193182 Z" fill-opacity="0.2" fill="#FFFFFF"></path>
                                <path d="M57.8404635,103.119318 C55.7705996,104.272746 53.2495653,104.272746 51.1797014,103.119318 L18.2971702,84.7102273 L18.2174688,85.2272727 L51.1797014,103.670455 C53.2495653,104.823882 55.7705996,104.823882 57.8404635,103.670455 L91.087344,85.2272727 L91.0019496,84.7045455 L57.8404635,103.119318 Z" fill="#A52714" opacity="0.2"></path>
                                <path d="M81.642725,26.8977273 C81.5000506,26.0599925 80.9010433,25.3716702 80.0899112,25.1133812 C79.2787791,24.8550921 78.3910312,25.0699866 77.7885918,25.6704545 L65.9700089,37.5 L56.6677139,19.8238636 C56.2740033,19.0769591 55.4980212,18.6092978 54.6524064,18.6092978 C53.8067917,18.6092978 53.0308096,19.0769591 52.6370989,19.8238636 L47.5532865,29.4829545 L34.8010584,5.75 C34.3385637,4.88777449 33.3752489,4.41753204 32.4093642,4.58249367 C31.4434795,4.7474553 30.6916438,5.51062507 30.542725,6.47727273 L18.2174688,85.2272727 L51.1797014,103.670455 C53.2495653,104.823882 55.7705996,104.823882 57.8404635,103.670455 L91.087344,85.2272727 L81.642725,26.8977273 Z" fill="url(#linearGradient-5)"></path>
                            </g>
                        </g>
                    </g>
                </g>
                <g id="functions" transform="translate(41.071429, 54.285714)">
                    <circle id="Oval" fill="#757575" fill-rule="nonzero" cx="23.0653409" cy="23.1306818" r="22.8693182"></circle>
                    <g id="functions-icon" transform="translate(11.859375, 12.578125)" fill-rule="evenodd" fill="#FFFFFF">
                        <polygon id="[" points="0.109587639 3.9905667 4.27030649 0.0657059519 6.4270999 2.31158126 3.20185532 5.46545571 3.20185532 15.5888158 6.4270999 18.5770437 4.27030649 20.7567845 0.109587639 17.0151544"></polygon>
                        <polygon id="[" transform="translate(19.829119, 10.460671) scale(-1, 1) translate(-19.829119, -10.460671) " points="16.6703629 4.03999233 20.8310818 0.115131579 22.9878752 2.36100689 19.7626306 5.51488133 19.7626306 15.6382414 22.9878752 18.6264693 20.8310818 20.8062102 16.6703629 17.06458"></polygon>
                        <ellipse id="Oval-2" cx="6.6890121" cy="10.5115132" rx="1.70413306" ry="1.69243421"></ellipse>
                        <ellipse id="Oval-2" cx="11.5579637" cy="10.5115132" rx="1.70413306" ry="1.69243421"></ellipse>
                        <ellipse id="Oval-2" cx="16.4269153" cy="10.5115132" rx="1.70413306" ry="1.69243421"></ellipse>
                    </g>
                </g>
            </g>
            <g id="Group" transform="translate(440.000000, 452.000000)">
                <g id="firebase-logo">
                    <g transform="translate(-18.250000, -4.642857)">
                        <mask id="mask-11" fill="white">
                            <use xlink:href="#path-10"></use>
                        </mask>
                        <g id="Shape"></g>
                        <g id="Group" mask="url(#mask-11)" fill-rule="nonzero">
                            <g transform="translate(0.032531, 0.097403)" id="Shape">
                                <path d="M18.2174688,85.2272727 L30.548418,6.47159091 C30.6991513,5.50578466 31.4517393,4.7443389 32.4172902,4.58072261 C33.382841,4.41710632 34.3450683,4.88797005 34.8067513,5.75 L47.5589795,29.4886364 L52.6427919,19.8295455 C53.0365025,19.0826409 53.8124846,18.6149796 54.6580994,18.6149796 C55.5037141,18.6149796 56.2796962,19.0826409 56.6734069,19.8295455 L91.087344,85.2272727 L18.2174688,85.2272727 Z" fill="#FFA000"></path>
                                <polygon fill="url(#linearGradient-3)" opacity="0.12" points="60.3453654 5.11363636 0 0 0 109.090909 18.2174688 85.2272727"></polygon>
                                <polygon fill="#F57C00" points="60.817881 54.5511364 47.5532865 29.4829545 18.2174688 85.2272727"></polygon>
                                <polygon fill="url(#linearGradient-4)" opacity="0.2" points="0 0 109.304813 0 109.304813 109.090909 0 109.090909"></polygon>
                                <path d="M91.087344,85.2272727 L81.642725,26.8977273 C81.5000506,26.0599925 80.9010433,25.3716702 80.0899112,25.1133812 C79.2787791,24.8550921 78.3910312,25.0699866 77.7885918,25.6704545 L18.2174688,85.2272727 L51.1797014,103.676136 C53.2495653,104.829564 55.7705996,104.829564 57.8404635,103.676136 L91.087344,85.2272727 Z" fill="#FFCA28"></path>
                                <path d="M81.642725,26.8977273 C81.5000506,26.0599925 80.9010433,25.3716702 80.0899112,25.1133812 C79.2787791,24.8550921 78.3910312,25.0699866 77.7885918,25.6704545 L65.9700089,37.5 L56.6677139,19.8238636 C56.2740033,19.0769591 55.4980212,18.6092978 54.6524064,18.6092978 C53.8067917,18.6092978 53.0308096,19.0769591 52.6370989,19.8238636 L47.5532865,29.4829545 L34.8010584,5.75 C34.3385637,4.88777449 33.3752489,4.41753204 32.4093642,4.58249367 C31.4434795,4.7474553 30.6916438,5.51062507 30.542725,6.47727273 L18.2174688,85.2272727 L18.1719251,85.2272727 L18.2117758,85.2727273 L18.5362745,85.4318182 L65.9415441,38.0681818 L77.7715129,26.25 C78.3736303,25.6462092 79.2635041,25.4291755 80.0767749,25.6877636 C80.8900457,25.9463517 81.4901363,26.6371354 81.6313391,27.4772727 L90.9962567,85.2840909 L91.087344,85.2272727 L81.642725,26.8977273 Z M18.325635,85.1193182 L30.548418,7.03977273 C30.6973368,6.07312507 31.4491725,5.3099553 32.4150572,5.14499367 C33.3809419,4.98003204 34.3442567,5.45027449 34.8067513,6.3125 L47.5589795,30.0511364 L52.6427919,20.3920455 C53.0365025,19.6451409 53.8124846,19.1774796 54.6580994,19.1774796 C55.5037141,19.1774796 56.2796962,19.6451409 56.6734069,20.3920455 L65.7821413,37.6818182 L18.325635,85.1193182 Z" fill-opacity="0.2" fill="#FFFFFF"></path>
                                <path d="M57.8404635,103.119318 C55.7705996,104.272746 53.2495653,104.272746 51.1797014,103.119318 L18.2971702,84.7102273 L18.2174688,85.2272727 L51.1797014,103.670455 C53.2495653,104.823882 55.7705996,104.823882 57.8404635,103.670455 L91.087344,85.2272727 L91.0019496,84.7045455 L57.8404635,103.119318 Z" fill="#A52714" opacity="0.2"></path>
                                <path d="M81.642725,26.8977273 C81.5000506,26.0599925 80.9010433,25.3716702 80.0899112,25.1133812 C79.2787791,24.8550921 78.3910312,25.0699866 77.7885918,25.6704545 L65.9700089,37.5 L56.6677139,19.8238636 C56.2740033,19.0769591 55.4980212,18.6092978 54.6524064,18.6092978 C53.8067917,18.6092978 53.0308096,19.0769591 52.6370989,19.8238636 L47.5532865,29.4829545 L34.8010584,5.75 C34.3385637,4.88777449 33.3752489,4.41753204 32.4093642,4.58249367 C31.4434795,4.7474553 30.6916438,5.51062507 30.542725,6.47727273 L18.2174688,85.2272727 L51.1797014,103.670455 C53.2495653,104.823882 55.7705996,104.823882 57.8404635,103.670455 L91.087344,85.2272727 L81.642725,26.8977273 Z" fill="url(#linearGradient-5)"></path>
                            </g>
                        </g>
                    </g>
                </g>
                <g id="storage" transform="translate(41.071429, 54.285714)">
                    <g id="oval-background" fill-rule="nonzero" fill="#757575">
                        <circle id="Oval" cx="23.0653409" cy="23.1306818" r="22.8693182"></circle>
                    </g>
                    <g id="storage-icon" transform="translate(11.500000, 13.656250)" fill-rule="evenodd" fill="#FFFFFF">
                        <path d="M9.27840909,0.332167832 L2.41761364,0.332167832 C1.15980114,0.332167832 0.142116477,1.3784965 0.142116477,2.65734266 L0.130681818,16.6083916 C0.130681818,17.8872378 1.15980114,18.9335664 2.41761364,18.9335664 L20.7130682,18.9335664 C21.9708807,18.9335664 23,17.8872378 23,16.6083916 L23,4.98251748 C23,3.70367133 21.9708807,2.65734266 20.7130682,2.65734266 L11.5653409,2.65734266 L9.27840909,0.332167832 Z M10.9364347,13.9460664 L14.613821,9.63286713 L19.5696023,15.4458042 L4.70454545,15.4458042 L8.42080966,10.7954545 L10.9364347,13.9460664 Z" id="cloud-storage"></path>
                    </g>
                </g>
            </g>
            <g id="Group" transform="translate(565.000000, 452.000000)">
                <g id="firebase-logo">
                    <g transform="translate(-18.250000, -4.642857)">
                        <mask id="mask-13" fill="white">
                            <use xlink:href="#path-12"></use>
                        </mask>
                        <g id="Shape"></g>
                        <g id="Group" mask="url(#mask-13)" fill-rule="nonzero">
                            <g transform="translate(0.032531, 0.097403)" id="Shape">
                                <path d="M18.2174688,85.2272727 L30.548418,6.47159091 C30.6991513,5.50578466 31.4517393,4.7443389 32.4172902,4.58072261 C33.382841,4.41710632 34.3450683,4.88797005 34.8067513,5.75 L47.5589795,29.4886364 L52.6427919,19.8295455 C53.0365025,19.0826409 53.8124846,18.6149796 54.6580994,18.6149796 C55.5037141,18.6149796 56.2796962,19.0826409 56.6734069,19.8295455 L91.087344,85.2272727 L18.2174688,85.2272727 Z" fill="#FFA000"></path>
                                <polygon fill="url(#linearGradient-3)" opacity="0.12" points="60.3453654 5.11363636 0 0 0 109.090909 18.2174688 85.2272727"></polygon>
                                <polygon fill="#F57C00" points="60.817881 54.5511364 47.5532865 29.4829545 18.2174688 85.2272727"></polygon>
                                <polygon fill="url(#linearGradient-4)" opacity="0.2" points="0 0 109.304813 0 109.304813 109.090909 0 109.090909"></polygon>
                                <path d="M91.087344,85.2272727 L81.642725,26.8977273 C81.5000506,26.0599925 80.9010433,25.3716702 80.0899112,25.1133812 C79.2787791,24.8550921 78.3910312,25.0699866 77.7885918,25.6704545 L18.2174688,85.2272727 L51.1797014,103.676136 C53.2495653,104.829564 55.7705996,104.829564 57.8404635,103.676136 L91.087344,85.2272727 Z" fill="#FFCA28"></path>
                                <path d="M81.642725,26.8977273 C81.5000506,26.0599925 80.9010433,25.3716702 80.0899112,25.1133812 C79.2787791,24.8550921 78.3910312,25.0699866 77.7885918,25.6704545 L65.9700089,37.5 L56.6677139,19.8238636 C56.2740033,19.0769591 55.4980212,18.6092978 54.6524064,18.6092978 C53.8067917,18.6092978 53.0308096,19.0769591 52.6370989,19.8238636 L47.5532865,29.4829545 L34.8010584,5.75 C34.3385637,4.88777449 33.3752489,4.41753204 32.4093642,4.58249367 C31.4434795,4.7474553 30.6916438,5.51062507 30.542725,6.47727273 L18.2174688,85.2272727 L18.1719251,85.2272727 L18.2117758,85.2727273 L18.5362745,85.4318182 L65.9415441,38.0681818 L77.7715129,26.25 C78.3736303,25.6462092 79.2635041,25.4291755 80.0767749,25.6877636 C80.8900457,25.9463517 81.4901363,26.6371354 81.6313391,27.4772727 L90.9962567,85.2840909 L91.087344,85.2272727 L81.642725,26.8977273 Z M18.325635,85.1193182 L30.548418,7.03977273 C30.6973368,6.07312507 31.4491725,5.3099553 32.4150572,5.14499367 C33.3809419,4.98003204 34.3442567,5.45027449 34.8067513,6.3125 L47.5589795,30.0511364 L52.6427919,20.3920455 C53.0365025,19.6451409 53.8124846,19.1774796 54.6580994,19.1774796 C55.5037141,19.1774796 56.2796962,19.6451409 56.6734069,20.3920455 L65.7821413,37.6818182 L18.325635,85.1193182 Z" fill-opacity="0.2" fill="#FFFFFF"></path>
                                <path d="M57.8404635,103.119318 C55.7705996,104.272746 53.2495653,104.272746 51.1797014,103.119318 L18.2971702,84.7102273 L18.2174688,85.2272727 L51.1797014,103.670455 C53.2495653,104.823882 55.7705996,104.823882 57.8404635,103.670455 L91.087344,85.2272727 L91.0019496,84.7045455 L57.8404635,103.119318 Z" fill="#A52714" opacity="0.2"></path>
                                <path d="M81.642725,26.8977273 C81.5000506,26.0599925 80.9010433,25.3716702 80.0899112,25.1133812 C79.2787791,24.8550921 78.3910312,25.0699866 77.7885918,25.6704545 L65.9700089,37.5 L56.6677139,19.8238636 C56.2740033,19.0769591 55.4980212,18.6092978 54.6524064,18.6092978 C53.8067917,18.6092978 53.0308096,19.0769591 52.6370989,19.8238636 L47.5532865,29.4829545 L34.8010584,5.75 C34.3385637,4.88777449 33.3752489,4.41753204 32.4093642,4.58249367 C31.4434795,4.7474553 30.6916438,5.51062507 30.542725,6.47727273 L18.2174688,85.2272727 L51.1797014,103.670455 C53.2495653,104.823882 55.7705996,104.823882 57.8404635,103.670455 L91.087344,85.2272727 L81.642725,26.8977273 Z" fill="url(#linearGradient-5)"></path>
                            </g>
                        </g>
                    </g>
                </g>
                <g id="hosting" transform="translate(41.071429, 54.285714)">
                    <circle id="Oval" fill="#757575" fill-rule="nonzero" cx="23.0653409" cy="23.1306818" r="22.8693182"></circle>
                    <g id="hosting-icon" transform="translate(11.500000, 11.500000)" fill-rule="evenodd" fill="#FFFFFF">
                        <path d="M11.5653409,0.193006993 C5.25340909,0.193006993 0.130681818,5.23692308 0.130681818,11.4517483 C0.130681818,17.6665734 5.25340909,22.7104895 11.5653409,22.7104895 C17.8772727,22.7104895 23,17.6665734 23,11.4517483 C23,5.23692308 17.8772727,0.193006993 11.5653409,0.193006993 Z M10.421875,20.3799301 C5.90518466,19.8282517 2.41761364,16.0453147 2.41761364,11.4517483 C2.41761364,10.7537063 2.50909091,10.0894406 2.65774148,9.43643357 L8.13494318,14.8293706 L8.13494318,15.9552448 C8.13494318,17.1937063 9.1640625,18.206993 10.421875,18.206993 L10.421875,20.3799301 Z M18.3117898,17.5202098 C18.0144886,16.6082517 17.1683239,15.9552448 16.1392045,15.9552448 L14.9957386,15.9552448 L14.9957386,12.5776224 C14.9957386,11.9583916 14.481179,11.4517483 13.8522727,11.4517483 L6.99147727,11.4517483 L6.99147727,9.2 L9.27840909,9.2 C9.90731534,9.2 10.421875,8.69335664 10.421875,8.07412587 L10.421875,5.82237762 L12.7088068,5.82237762 C13.9666193,5.82237762 14.9957386,4.80909091 14.9957386,3.57062937 L14.9957386,3.10902098 C18.3460938,4.44881119 20.7130682,7.68006993 20.7130682,11.4517483 C20.7130682,13.7935664 19.7982955,15.9214685 18.3117898,17.5202098 Z" id="Shape"></path>
                    </g>
                </g>
            </g>
            <g id="Group" transform="translate(690.000000, 452.000000)">
                <g id="firebase-logo">
                    <g transform="translate(-18.250000, -4.642857)">
                        <mask id="mask-15" fill="white">
                            <use xlink:href="#path-14"></use>
                        </mask>
                        <g id="Shape"></g>
                        <g id="Group" mask="url(#mask-15)" fill-rule="nonzero">
                            <g transform="translate(0.032531, 0.097403)" id="Shape">
                                <path d="M18.2174688,85.2272727 L30.548418,6.47159091 C30.6991513,5.50578466 31.4517393,4.7443389 32.4172902,4.58072261 C33.382841,4.41710632 34.3450683,4.88797005 34.8067513,5.75 L47.5589795,29.4886364 L52.6427919,19.8295455 C53.0365025,19.0826409 53.8124846,18.6149796 54.6580994,18.6149796 C55.5037141,18.6149796 56.2796962,19.0826409 56.6734069,19.8295455 L91.087344,85.2272727 L18.2174688,85.2272727 Z" fill="#FFA000"></path>
                                <polygon fill="url(#linearGradient-3)" opacity="0.12" points="60.3453654 5.11363636 0 0 0 109.090909 18.2174688 85.2272727"></polygon>
                                <polygon fill="#F57C00" points="60.817881 54.5511364 47.5532865 29.4829545 18.2174688 85.2272727"></polygon>
                                <polygon fill="url(#linearGradient-4)" opacity="0.2" points="0 0 109.304813 0 109.304813 109.090909 0 109.090909"></polygon>
                                <path d="M91.087344,85.2272727 L81.642725,26.8977273 C81.5000506,26.0599925 80.9010433,25.3716702 80.0899112,25.1133812 C79.2787791,24.8550921 78.3910312,25.0699866 77.7885918,25.6704545 L18.2174688,85.2272727 L51.1797014,103.676136 C53.2495653,104.829564 55.7705996,104.829564 57.8404635,103.676136 L91.087344,85.2272727 Z" fill="#FFCA28"></path>
                                <path d="M81.642725,26.8977273 C81.5000506,26.0599925 80.9010433,25.3716702 80.0899112,25.1133812 C79.2787791,24.8550921 78.3910312,25.0699866 77.7885918,25.6704545 L65.9700089,37.5 L56.6677139,19.8238636 C56.2740033,19.0769591 55.4980212,18.6092978 54.6524064,18.6092978 C53.8067917,18.6092978 53.0308096,19.0769591 52.6370989,19.8238636 L47.5532865,29.4829545 L34.8010584,5.75 C34.3385637,4.88777449 33.3752489,4.41753204 32.4093642,4.58249367 C31.4434795,4.7474553 30.6916438,5.51062507 30.542725,6.47727273 L18.2174688,85.2272727 L18.1719251,85.2272727 L18.2117758,85.2727273 L18.5362745,85.4318182 L65.9415441,38.0681818 L77.7715129,26.25 C78.3736303,25.6462092 79.2635041,25.4291755 80.0767749,25.6877636 C80.8900457,25.9463517 81.4901363,26.6371354 81.6313391,27.4772727 L90.9962567,85.2840909 L91.087344,85.2272727 L81.642725,26.8977273 Z M18.325635,85.1193182 L30.548418,7.03977273 C30.6973368,6.07312507 31.4491725,5.3099553 32.4150572,5.14499367 C33.3809419,4.98003204 34.3442567,5.45027449 34.8067513,6.3125 L47.5589795,30.0511364 L52.6427919,20.3920455 C53.0365025,19.6451409 53.8124846,19.1774796 54.6580994,19.1774796 C55.5037141,19.1774796 56.2796962,19.6451409 56.6734069,20.3920455 L65.7821413,37.6818182 L18.325635,85.1193182 Z" fill-opacity="0.2" fill="#FFFFFF"></path>
                                <path d="M57.8404635,103.119318 C55.7705996,104.272746 53.2495653,104.272746 51.1797014,103.119318 L18.2971702,84.7102273 L18.2174688,85.2272727 L51.1797014,103.670455 C53.2495653,104.823882 55.7705996,104.823882 57.8404635,103.670455 L91.087344,85.2272727 L91.0019496,84.7045455 L57.8404635,103.119318 Z" fill="#A52714" opacity="0.2"></path>
                                <path d="M81.642725,26.8977273 C81.5000506,26.0599925 80.9010433,25.3716702 80.0899112,25.1133812 C79.2787791,24.8550921 78.3910312,25.0699866 77.7885918,25.6704545 L65.9700089,37.5 L56.6677139,19.8238636 C56.2740033,19.0769591 55.4980212,18.6092978 54.6524064,18.6092978 C53.8067917,18.6092978 53.0308096,19.0769591 52.6370989,19.8238636 L47.5532865,29.4829545 L34.8010584,5.75 C34.3385637,4.88777449 33.3752489,4.41753204 32.4093642,4.58249367 C31.4434795,4.7474553 30.6916438,5.51062507 30.542725,6.47727273 L18.2174688,85.2272727 L51.1797014,103.670455 C53.2495653,104.823882 55.7705996,104.823882 57.8404635,103.670455 L91.087344,85.2272727 L81.642725,26.8977273 Z" fill="url(#linearGradient-5)"></path>
                            </g>
                        </g>
                    </g>
                </g>
                <g id="firestore" transform="translate(41.071429, 54.285714)">
                    <g id="oval-background" fill-rule="nonzero" fill="#757575">
                        <circle id="Oval" cx="23.0653409" cy="23.1306818" r="22.8693182"></circle>
                    </g>
                    <g id="firestore-icon" transform="translate(12.578125, 11.500000)" fill-rule="evenodd" fill="#FFFFFF">
                        <path d="M10.5658307,12.5776224 L0.197492163,17.0811189 L0.197492163,12.5776224 L10.5658307,8.07412587 L20.9341693,12.5776224 L20.9341693,16.5181818 L20.9341693,15.6737762 L20.9341693,17.0811189 L10.5658307,12.5776224 Z M10.5658307,0.193006993 L20.9341693,4.6965035 L20.9341693,9.2 L10.5658307,4.6965035 L0.197492163,9.2 L0.197492163,4.6965035 L10.5658307,0.193006993 Z M14.4539577,16.5181818 L19.638127,18.7699301 L10.5658307,22.7104895 L10.5658307,18.206993 L14.4539577,16.5181818 Z" id="Shape"></path>
                    </g>
                </g>
            </g>
            <g id="firebase-logo" transform="translate(30.000000, 134.000000)">
                <g transform="translate(-51.000000, -13.000000)">
                    <mask id="mask-17" fill="white">
                        <use xlink:href="#path-16"></use>
                    </mask>
                    <g id="Shape"></g>
                    <g id="Group" mask="url(#mask-17)" fill-rule="nonzero">
                        <g transform="translate(0.090909, 0.272727)" id="Shape">
                            <path d="M50.9090909,238.636364 L85.3681818,18.1204545 C85.7894092,15.416197 87.8925319,13.2841489 90.5907836,12.8260233 C93.2890352,12.3678977 95.9779991,13.6863161 97.2681818,16.1 L132.904545,82.5681818 L147.111364,55.5227273 C148.211596,53.4313946 150.380094,52.1219429 152.743182,52.1219429 C155.10627,52.1219429 157.274768,53.4313946 158.375,55.5227273 L254.545455,238.636364 L50.9090909,238.636364 Z" fill="#FFA000"></path>
                            <polygon fill="url(#linearGradient-3)" opacity="0.12" points="168.636364 14.3181818 0 0 0 305.454545 50.9090909 238.636364"></polygon>
                            <polygon fill="#F57C00" points="169.956818 152.743182 132.888636 82.5522727 50.9090909 238.636364"></polygon>
                            <polygon fill="url(#linearGradient-4)" opacity="0.2" points="0 0 305.454545 0 305.454545 305.454545 0 305.454545"></polygon>
                            <path d="M254.545455,238.636364 L228.152273,75.3136364 C227.753566,72.967979 226.079628,71.0406765 223.812903,70.3174673 C221.546177,69.594258 219.065348,70.1959624 217.381818,71.8772727 L50.9090909,238.636364 L143.022727,290.293182 C148.807004,293.522779 155.852086,293.522779 161.636364,290.293182 L254.545455,238.636364 Z" fill="#FFCA28"></path>
                            <path d="M228.152273,75.3136364 C227.753566,72.967979 226.079628,71.0406765 223.812903,70.3174673 C221.546177,69.594258 219.065348,70.1959624 217.381818,71.8772727 L184.354545,105 L158.359091,55.5068182 C157.258858,53.4154855 155.090361,52.1060338 152.727273,52.1060338 C150.364185,52.1060338 148.195687,53.4154855 147.095455,55.5068182 L132.888636,82.5522727 L97.2522727,16.1 C95.9598219,13.6857686 93.267819,12.3690897 90.5686343,12.8309823 C87.8694497,13.2928748 85.7684292,15.4297502 85.3522727,18.1363636 L50.9090909,238.636364 L50.7818182,238.636364 L50.8931818,238.763636 L51.8,239.209091 L184.275,106.590909 L217.334091,73.5 C219.01672,71.8093857 221.503491,71.2016915 223.776193,71.9257381 C226.048895,72.6497848 227.72586,74.583979 228.120455,76.9363636 L254.290909,238.795455 L254.545455,238.636364 L228.152273,75.3136364 Z M51.2113636,238.334091 L85.3681818,19.7113636 C85.7843383,17.0047502 87.8853587,14.8678748 90.5845434,14.4059823 C93.283728,13.9440897 95.975731,15.2607686 97.2681818,17.675 L132.904545,84.1431818 L147.111364,57.0977273 C148.211596,55.0063946 150.380094,53.6969429 152.743182,53.6969429 C155.10627,53.6969429 157.274768,55.0063946 158.375,57.0977273 L183.829545,105.509091 L51.2113636,238.334091 Z" fill-opacity="0.2" fill="#FFFFFF"></path>
                            <path d="M161.636364,288.734091 C155.852086,291.963688 148.807004,291.963688 143.022727,288.734091 L51.1318182,237.188636 L50.9090909,238.636364 L143.022727,290.277273 C148.807004,293.506869 155.852086,293.506869 161.636364,290.277273 L254.545455,238.636364 L254.306818,237.172727 L161.636364,288.734091 Z" fill="#A52714" opacity="0.2"></path>
                            <path d="M228.152273,75.3136364 C227.753566,72.967979 226.079628,71.0406765 223.812903,70.3174673 C221.546177,69.594258 219.065348,70.1959624 217.381818,71.8772727 L184.354545,105 L158.359091,55.5068182 C157.258858,53.4154855 155.090361,52.1060338 152.727273,52.1060338 C150.364185,52.1060338 148.195687,53.4154855 147.095455,55.5068182 L132.888636,82.5522727 L97.2522727,16.1 C95.9598219,13.6857686 93.267819,12.3690897 90.5686343,12.8309823 C87.8694497,13.2928748 85.7684292,15.4297502 85.3522727,18.1363636 L50.9090909,238.636364 L143.022727,290.277273 C148.807004,293.506869 155.852086,293.506869 161.636364,290.277273 L254.545455,238.636364 L228.152273,75.3136364 Z" fill="url(#linearGradient-5)"></path>
                        </g>
                    </g>
                </g>
            </g>
        </g>
    </g>
</svg>