<?xml version="1.0" encoding="UTF-8"?>
<svg width="150px" height="150px" viewBox="0 0 150 150" version="1.1" xmlns="http://www.w3.org/2000/svg" xmlns:xlink="http://www.w3.org/1999/xlink">
    <!-- Generator: Sketch 44.1 (41455) - http://www.bohemiancoding.com/sketch -->
    <title>crash-reporting-icon</title>
    <desc>Created with Sketch.</desc>
    <defs></defs>
    <g id="Logos" stroke="none" stroke-width="1" fill="none" fill-rule="evenodd">
        <g id="crash-reporting-icon" fill-rule="nonzero">
            <g id="crash-reporting" transform="translate(11.000000, 11.000000)">
                <circle id="Oval" fill="#757575" cx="64.1818182" cy="64.3636364" r="63.6363636"></circle>
                <g id="crash-reporting-icon" transform="translate(33.000000, 29.000000)" fill="#FFFFFF">
                    <path d="M63,19.6875 L51.975,19.6875 C50.00625,16.5375 47.64375,13.78125 44.8875,11.8125 L51.1875,5.5125 L45.675,0 L37.0125,8.6625 C35.4375,8.26875 33.46875,7.875 31.5,7.875 C29.53125,7.875 27.5625,8.26875 25.9875,8.6625 L17.325,0 L11.8125,5.5125 L18.1125,11.8125 C15.35625,13.78125 12.99375,16.5375 11.025,19.6875 L0,19.6875 L0,27.5625 L8.26875,27.5625 C7.875,28.74375 7.875,30.31875 7.875,31.5 L7.875,35.4375 L0,35.4375 L0,43.3125 L7.875,43.3125 L7.875,47.25 C7.875,48.43125 7.875,50.00625 8.26875,51.1875 L0,51.1875 L0,59.0625 L11.025,59.0625 C14.9625,66.15 22.8375,70.875 31.5,70.875 C40.1625,70.875 48.0375,66.15 51.975,59.0625 L63,59.0625 L63,51.1875 L54.73125,51.1875 C55.125,50.00625 55.125,48.43125 55.125,47.25 L55.125,43.3125 L63,43.3125 L63,35.4375 L55.125,35.4375 L55.125,31.5 C55.125,30.31875 55.125,28.74375 54.73125,27.5625 L63,27.5625 L63,19.6875 L63,19.6875 Z M39.375,51.1875 L23.625,51.1875 L23.625,43.3125 L39.375,43.3125 L39.375,51.1875 L39.375,51.1875 Z M39.375,35.4375 L23.625,35.4375 L23.625,27.5625 L39.375,27.5625 L39.375,35.4375 L39.375,35.4375 Z" id="Shape"></path>
                </g>
            </g>
        </g>
    </g>
</svg>