<?xml version="1.0" encoding="UTF-8"?>
<svg width="150px" height="150px" viewBox="0 0 150 150" version="1.1" xmlns="http://www.w3.org/2000/svg" xmlns:xlink="http://www.w3.org/1999/xlink">
    <!-- Generator: Sketch 44.1 (41455) - http://www.bohemiancoding.com/sketch -->
    <title>Authentication-icon</title>
    <desc>Created with Sketch.</desc>
    <defs></defs>
    <g id="Logos" stroke="none" stroke-width="1" fill="none" fill-rule="evenodd">
        <g id="Authentication-icon" fill-rule="nonzero">
            <g id="authentication" transform="translate(11.000000, 11.000000)">
                <circle id="Oval" fill="#757575" cx="64.1818182" cy="64.3636364" r="63.6363636"></circle>
                <g id="authentication-icon" transform="translate(33.000000, 44.000000)" fill="#FFFFFF">
                    <path d="M41.3986517,24.0074411 C58.0382607,23.0045204 62.0820262,31.7632 62.3318104,31.7632 L62.3318104,40.0696154 L45.8573071,40.0696154 C45.6075228,39.8157308 48.1323194,27.526355 41.3986517,24.0074411 Z M43.6408728,17.7719231 C38.8125521,17.7719231 34.8984249,13.7935426 34.8984249,8.88596154 C34.8984249,3.97838049 38.8125521,0 43.6408728,0 C48.4691935,0 52.3833207,3.97838049 52.3833207,8.88596154 C52.3833207,13.7935426 48.4691935,17.7719231 43.6408728,17.7719231 Z M10.7764052,8.88596154 C10.7764052,4.06215385 14.7729529,0 19.5188532,0 C24.2647535,0 28.2613011,4.06215385 28.2613011,8.88596154 C28.2613011,13.7097692 24.2647535,17.7719231 19.5188532,17.7719231 C14.7729529,17.7719231 10.7764052,13.7097692 10.7764052,8.88596154 Z M19.5188532,23.1807692 C38.4556025,23.1807692 39.0377063,33.3361538 39.0377063,33.3361538 L39.0377063,40.0696154 L0,40.0696154 L0,33.3361538 C0,33.3361538 0.582103881,23.1807692 19.5188532,23.1807692 Z" id="shape"></path>
                </g>
            </g>
        </g>
    </g>
</svg>