<?xml version="1.0" encoding="UTF-8"?>
<svg width="150px" height="150px" viewBox="0 0 150 150" version="1.1" xmlns="http://www.w3.org/2000/svg" xmlns:xlink="http://www.w3.org/1999/xlink">
    <!-- Generator: Sketch 44.1 (41455) - http://www.bohemiancoding.com/sketch -->
    <title>Dynamic-Links-icon</title>
    <desc>Created with Sketch.</desc>
    <defs></defs>
    <g id="Logos" stroke="none" stroke-width="1" fill="none" fill-rule="evenodd">
        <g id="Dynamic-Links-icon" fill-rule="nonzero">
            <g id="dynamic-links" transform="translate(11.000000, 11.000000)">
                <circle id="Oval" fill="#757575" cx="64.1818182" cy="64.3636364" r="63.6363636"></circle>
                <g transform="translate(33.000000, 33.000000)" id="Shape" fill="#FFFFFF">
                    <path d="M7.54922385,31.1844873 C7.54922385,26.0870932 11.6924724,21.9435974 16.7895623,21.9435974 L28.7125796,21.9435974 L28.7125796,16.2798263 L16.7895623,16.2798263 C8.56268033,16.2798263 1.88579061,22.9571144 1.88579061,31.1844873 C1.88579061,39.4118602 8.56268033,46.0891483 16.7895623,46.0891483 L28.7125796,46.0891483 L28.7125796,40.4253771 L16.7895623,40.4253771 C11.6924724,40.4253771 7.54922385,36.2818813 7.54922385,31.1844873 Z M19.7703166,34.1654195 L43.6163513,34.1654195 L43.6163513,28.2035551 L19.7703166,28.2035551 L19.7703166,34.1654195 Z M46.5971056,16.2798263 L34.6740883,16.2798263 L34.6740883,21.9435974 L46.5971056,21.9435974 C51.6941956,21.9435974 55.8374441,26.0870932 55.8374441,31.1844873 C55.8374441,36.2818813 51.6941956,40.4253771 46.5971056,40.4253771 L34.6740883,40.4253771 L34.6740883,46.0891483 L46.5971056,46.0891483 C54.8239876,46.0891483 61.5008773,39.4118602 61.5008773,31.1844873 C61.5008773,22.9571144 54.8239876,16.2798263 46.5971056,16.2798263 Z" transform="translate(31.693334, 31.184487) rotate(-45.000000) translate(-31.693334, -31.184487) "></path>
                </g>
            </g>
        </g>
    </g>
</svg>