<?xml version="1.0" encoding="UTF-8"?>
<svg width="150px" height="150px" viewBox="0 0 150 150" version="1.1" xmlns="http://www.w3.org/2000/svg" xmlns:xlink="http://www.w3.org/1999/xlink">
    <!-- Generator: Sketch 44.1 (41455) - http://www.bohemiancoding.com/sketch -->
    <title>Hosting-icon</title>
    <desc>Created with Sketch.</desc>
    <defs></defs>
    <g id="Logos" stroke="none" stroke-width="1" fill="none" fill-rule="evenodd">
        <g id="Hosting-icon">
            <g id="hosting" transform="translate(11.000000, 11.000000)">
                <circle id="Oval" fill="#757575" fill-rule="nonzero" cx="64.1818182" cy="64.3636364" r="63.6363636"></circle>
                <g id="hosting-icon" transform="translate(32.000000, 32.000000)" fill-rule="evenodd" fill="#FFFFFF">
                    <path d="M32.1818182,0.545454545 C14.6181818,0.545454545 0.363636364,14.8 0.363636364,32.3636364 C0.363636364,49.9272727 14.6181818,64.1818182 32.1818182,64.1818182 C49.7454545,64.1818182 64,49.9272727 64,32.3636364 C64,14.8 49.7454545,0.545454545 32.1818182,0.545454545 Z M29,57.5954545 C16.4318182,56.0363636 6.72727273,45.3454545 6.72727273,32.3636364 C6.72727273,30.3909091 6.98181818,28.5136364 7.39545455,26.6681818 L22.6363636,41.9090909 L22.6363636,45.0909091 C22.6363636,48.5909091 25.5,51.4545455 29,51.4545455 L29,57.5954545 Z M50.9545455,49.5136364 C50.1272727,46.9363636 47.7727273,45.0909091 44.9090909,45.0909091 L41.7272727,45.0909091 L41.7272727,35.5454545 C41.7272727,33.7954545 40.2954545,32.3636364 38.5454545,32.3636364 L19.4545455,32.3636364 L19.4545455,26 L25.8181818,26 C27.5681818,26 29,24.5681818 29,22.8181818 L29,16.4545455 L35.3636364,16.4545455 C38.8636364,16.4545455 41.7272727,13.5909091 41.7272727,10.0909091 L41.7272727,8.78636364 C51.05,12.5727273 57.6363636,21.7045455 57.6363636,32.3636364 C57.6363636,38.9818182 55.0909091,44.9954545 50.9545455,49.5136364 Z" id="Shape"></path>
                </g>
            </g>
        </g>
    </g>
</svg>