<?xml version="1.0" encoding="UTF-8"?>
<svg width="150px" height="150px" viewBox="0 0 150 150" version="1.1" xmlns="http://www.w3.org/2000/svg" xmlns:xlink="http://www.w3.org/1999/xlink">
    <!-- Generator: Sketch 44.1 (41455) - http://www.bohemiancoding.com/sketch -->
    <title>Realtime-Database-icon</title>
    <desc>Created with Sketch.</desc>
    <defs></defs>
    <g id="Logos" stroke="none" stroke-width="1" fill="none" fill-rule="evenodd">
        <g id="Realtime-Database-icon">
            <g id="realtime-database" transform="translate(11.000000, 11.000000)">
                <circle id="Oval" fill="#757575" fill-rule="nonzero" cx="64.1818182" cy="64.3636364" r="63.6363636"></circle>
                <g id="realtime-database-icon" transform="translate(35.000000, 35.000000)" fill-rule="evenodd" fill="#FFFFFF">
                    <path d="M0.545454545,38.9090909 L57.8181818,38.9090909 L57.8181818,51.6427273 C57.8198703,53.3276442 57.1519409,54.9441757 55.9614195,56.1364873 C54.7708982,57.3287989 53.1553721,57.9991567 51.4704545,58 L6.89318182,58 C3.38624918,57.9938584 0.54632656,55.1496652 0.545454545,51.6427273 L0.545454545,38.9090909 Z M0.545454545,7.06545455 C0.545454545,3.56545455 3.38681818,0.727272727 6.89318182,0.727272727 L51.4704545,0.727272727 C54.9768182,0.727272727 57.8181818,3.59090909 57.8181818,7.06545455 L57.8181818,29.3890909 C57.8181818,32.8890909 54.9768182,35.7272727 51.4704545,35.7272727 L6.89318182,35.7272727 C3.38681818,35.7272727 0.545454545,32.8636364 0.545454545,29.3890909 L0.545454545,7.06545455 Z M6.90909091,7.09090909 L51.4545455,7.09090909 L51.4545455,16.6363636 L6.90909091,16.6363636 L6.90909091,7.09090909 Z M6.90909091,24.6068182 C6.90909091,23.7159091 7.59,23 8.51590909,23 L11.6659091,23 C12.5568182,23 13.2727273,23.6809091 13.2727273,24.6068182 L13.2727273,27.7568182 C13.2796779,28.1850658 13.1126215,28.5978172 12.8097648,28.9006739 C12.5069081,29.2035306 12.0941567,29.370587 11.6659091,29.3636364 L8.51590909,29.3636364 C8.08766144,29.370587 7.67491005,29.2035306 7.37205335,28.9006739 C7.06919665,28.5978172 6.90214028,28.1850658 6.90909091,27.7568182 L6.90909091,24.6068182 Z M6.90909091,46.8795455 C6.90909091,45.9886364 7.59,45.2727273 8.51590909,45.2727273 L11.6659091,45.2727273 C12.5568182,45.2727273 13.2727273,45.9536364 13.2727273,46.8795455 L13.2727273,50.0295455 C13.2796779,50.4577931 13.1126215,50.8705445 12.8097648,51.1734012 C12.5069081,51.4762579 12.0941567,51.6433143 11.6659091,51.6363636 L8.51590909,51.6363636 C8.08766144,51.6433143 7.67491005,51.4762579 7.37205335,51.1734012 C7.06919665,50.8705445 6.90214028,50.4577931 6.90909091,50.0295455 L6.90909091,46.8795455 Z" id="Shape"></path>
                </g>
            </g>
        </g>
    </g>
</svg>